<!--?xml version="1.0" standalone="no"?-->

<svg version="1.0" xmlns="http://www.w3.org/2000/svg" width="100%" height="100%" viewBox="0 0 6800.000000 5621.000000" preserveAspectRatio="xMidYMid meet">
<style>

@-webkit-keyframes animate-svg-fill-1 {
  0% {
    fill: transparent;
  }

  100% {
    fill: rgb(0, 0, 0);
  }
}

@keyframes animate-svg-fill-1 {
  0% {
    fill: transparent;
  }

  100% {
    fill: rgb(0, 0, 0);
  }
}

.svg-elem-1 {
  -webkit-animation: animate-svg-fill-1 0.2s linear 0.1s both;
          animation: animate-svg-fill-1 0.2s linear 0.1s both;
}

@-webkit-keyframes animate-svg-fill-2 {
  0% {
    fill: transparent;
  }

  100% {
    fill: rgb(0, 0, 0);
  }
}

@keyframes animate-svg-fill-2 {
  0% {
    fill: transparent;
  }

  100% {
    fill: rgb(0, 0, 0);
  }
}

.svg-elem-2 {
  -webkit-animation: animate-svg-fill-2 0.2s linear 0.2s both;
          animation: animate-svg-fill-2 0.2s linear 0.2s both;
}

@-webkit-keyframes animate-svg-fill-3 {
  0% {
    fill: transparent;
  }

  100% {
    fill: rgb(0, 0, 0);
  }
}

@keyframes animate-svg-fill-3 {
  0% {
    fill: transparent;
  }

  100% {
    fill: rgb(0, 0, 0);
  }
}

.svg-elem-3 {
  -webkit-animation: animate-svg-fill-3 0.2s linear 0.30000000000000004s both;
          animation: animate-svg-fill-3 0.2s linear 0.30000000000000004s both;
}

@-webkit-keyframes animate-svg-fill-4 {
  0% {
    fill: transparent;
  }

  100% {
    fill: rgb(0, 0, 0);
  }
}

@keyframes animate-svg-fill-4 {
  0% {
    fill: transparent;
  }

  100% {
    fill: rgb(0, 0, 0);
  }
}

.svg-elem-4 {
  -webkit-animation: animate-svg-fill-4 0.2s linear 0.4s both;
          animation: animate-svg-fill-4 0.2s linear 0.4s both;
}

@-webkit-keyframes animate-svg-fill-5 {
  0% {
    fill: transparent;
  }

  100% {
    fill: rgb(0, 0, 0);
  }
}

@keyframes animate-svg-fill-5 {
  0% {
    fill: transparent;
  }

  100% {
    fill: rgb(0, 0, 0);
  }
}

.svg-elem-5 {
  -webkit-animation: animate-svg-fill-5 0.2s linear 0.5s both;
          animation: animate-svg-fill-5 0.2s linear 0.5s both;
}

@-webkit-keyframes animate-svg-fill-6 {
  0% {
    fill: transparent;
  }

  100% {
    fill: rgb(0, 0, 0);
  }
}

@keyframes animate-svg-fill-6 {
  0% {
    fill: transparent;
  }

  100% {
    fill: rgb(0, 0, 0);
  }
}

.svg-elem-6 {
  -webkit-animation: animate-svg-fill-6 0.2s linear 0.6s both;
          animation: animate-svg-fill-6 0.2s linear 0.6s both;
}

@-webkit-keyframes animate-svg-fill-7 {
  0% {
    fill: transparent;
  }

  100% {
    fill: rgb(0, 0, 0);
  }
}

@keyframes animate-svg-fill-7 {
  0% {
    fill: transparent;
  }

  100% {
    fill: rgb(0, 0, 0);
  }
}

.svg-elem-7 {
  -webkit-animation: animate-svg-fill-7 0.2s linear 0.7000000000000001s both;
          animation: animate-svg-fill-7 0.2s linear 0.7000000000000001s both;
}

@-webkit-keyframes animate-svg-fill-8 {
  0% {
    fill: transparent;
  }

  100% {
    fill: rgb(0, 0, 0);
  }
}

@keyframes animate-svg-fill-8 {
  0% {
    fill: transparent;
  }

  100% {
    fill: rgb(0, 0, 0);
  }
}

.svg-elem-8 {
  -webkit-animation: animate-svg-fill-8 0.2s linear 0.8s both;
          animation: animate-svg-fill-8 0.2s linear 0.8s both;
}

@-webkit-keyframes animate-svg-fill-9 {
  0% {
    fill: transparent;
  }

  100% {
    fill: rgb(0, 0, 0);
  }
}

@keyframes animate-svg-fill-9 {
  0% {
    fill: transparent;
  }

  100% {
    fill: rgb(0, 0, 0);
  }
}

.svg-elem-9 {
  -webkit-animation: animate-svg-fill-9 0.2s linear 0.9s both;
          animation: animate-svg-fill-9 0.2s linear 0.9s both;
}

@-webkit-keyframes animate-svg-fill-10 {
  0% {
    fill: transparent;
  }

  100% {
    fill: rgb(0, 0, 0);
  }
}

@keyframes animate-svg-fill-10 {
  0% {
    fill: transparent;
  }

  100% {
    fill: rgb(0, 0, 0);
  }
}

.svg-elem-10 {
  -webkit-animation: animate-svg-fill-10 0.2s linear 1s both;
          animation: animate-svg-fill-10 0.2s linear 1s both;
}

@-webkit-keyframes animate-svg-fill-11 {
  0% {
    fill: transparent;
  }

  100% {
    fill: rgb(0, 0, 0);
  }
}

@keyframes animate-svg-fill-11 {
  0% {
    fill: transparent;
  }

  100% {
    fill: rgb(0, 0, 0);
  }
}

.svg-elem-11 {
  -webkit-animation: animate-svg-fill-11 0.2s linear 1.1s both;
          animation: animate-svg-fill-11 0.2s linear 1.1s both;
}

@-webkit-keyframes animate-svg-fill-12 {
  0% {
    fill: transparent;
  }

  100% {
    fill: rgb(0, 0, 0);
  }
}

@keyframes animate-svg-fill-12 {
  0% {
    fill: transparent;
  }

  100% {
    fill: rgb(0, 0, 0);
  }
}

.svg-elem-12 {
  -webkit-animation: animate-svg-fill-12 0.2s linear 1.2000000000000002s both;
          animation: animate-svg-fill-12 0.2s linear 1.2000000000000002s both;
}

@-webkit-keyframes animate-svg-fill-13 {
  0% {
    fill: transparent;
  }

  100% {
    fill: rgb(0, 0, 0);
  }
}

@keyframes animate-svg-fill-13 {
  0% {
    fill: transparent;
  }

  100% {
    fill: rgb(0, 0, 0);
  }
}

.svg-elem-13 {
  -webkit-animation: animate-svg-fill-13 0.2s linear 1.3000000000000003s both;
          animation: animate-svg-fill-13 0.2s linear 1.3000000000000003s both;
}

@-webkit-keyframes animate-svg-fill-14 {
  0% {
    fill: transparent;
  }

  100% {
    fill: rgb(0, 0, 0);
  }
}

@keyframes animate-svg-fill-14 {
  0% {
    fill: transparent;
  }

  100% {
    fill: rgb(0, 0, 0);
  }
}

.svg-elem-14 {
  -webkit-animation: animate-svg-fill-14 0.2s linear 1.4000000000000001s both;
          animation: animate-svg-fill-14 0.2s linear 1.4000000000000001s both;
}

@-webkit-keyframes animate-svg-fill-15 {
  0% {
    fill: transparent;
  }

  100% {
    fill: rgb(0, 0, 0);
  }
}

@keyframes animate-svg-fill-15 {
  0% {
    fill: transparent;
  }

  100% {
    fill: rgb(0, 0, 0);
  }
}

.svg-elem-15 {
  -webkit-animation: animate-svg-fill-15 0.2s linear 1.5000000000000002s both;
          animation: animate-svg-fill-15 0.2s linear 1.5000000000000002s both;
}

@-webkit-keyframes animate-svg-fill-16 {
  0% {
    fill: transparent;
  }

  100% {
    fill: rgb(0, 0, 0);
  }
}

@keyframes animate-svg-fill-16 {
  0% {
    fill: transparent;
  }

  100% {
    fill: rgb(0, 0, 0);
  }
}

.svg-elem-16 {
  -webkit-animation: animate-svg-fill-16 0.2s linear 1.6s both;
          animation: animate-svg-fill-16 0.2s linear 1.6s both;
}

@-webkit-keyframes animate-svg-fill-17 {
  0% {
    fill: transparent;
  }

  100% {
    fill: rgb(0, 0, 0);
  }
}

@keyframes animate-svg-fill-17 {
  0% {
    fill: transparent;
  }

  100% {
    fill: rgb(0, 0, 0);
  }
}

.svg-elem-17 {
  -webkit-animation: animate-svg-fill-17 0.2s linear 1.7000000000000002s both;
          animation: animate-svg-fill-17 0.2s linear 1.7000000000000002s both;
}

@-webkit-keyframes animate-svg-fill-18 {
  0% {
    fill: transparent;
  }

  100% {
    fill: rgb(0, 0, 0);
  }
}

@keyframes animate-svg-fill-18 {
  0% {
    fill: transparent;
  }

  100% {
    fill: rgb(0, 0, 0);
  }
}

.svg-elem-18 {
  -webkit-animation: animate-svg-fill-18 0.2s linear 1.8000000000000003s both;
          animation: animate-svg-fill-18 0.2s linear 1.8000000000000003s both;
}

@-webkit-keyframes animate-svg-fill-19 {
  0% {
    fill: transparent;
  }

  100% {
    fill: rgb(0, 0, 0);
  }
}

@keyframes animate-svg-fill-19 {
  0% {
    fill: transparent;
  }

  100% {
    fill: rgb(0, 0, 0);
  }
}

.svg-elem-19 {
  -webkit-animation: animate-svg-fill-19 0.2s linear 1.9000000000000001s both;
          animation: animate-svg-fill-19 0.2s linear 1.9000000000000001s both;
}

@-webkit-keyframes animate-svg-fill-20 {
  0% {
    fill: transparent;
  }

  100% {
    fill: rgb(0, 0, 0);
  }
}

@keyframes animate-svg-fill-20 {
  0% {
    fill: transparent;
  }

  100% {
    fill: rgb(0, 0, 0);
  }
}

.svg-elem-20 {
  -webkit-animation: animate-svg-fill-20 0.2s linear 2s both;
          animation: animate-svg-fill-20 0.2s linear 2s both;
}

@-webkit-keyframes animate-svg-fill-21 {
  0% {
    fill: transparent;
  }

  100% {
    fill: rgb(0, 0, 0);
  }
}

@keyframes animate-svg-fill-21 {
  0% {
    fill: transparent;
  }

  100% {
    fill: rgb(0, 0, 0);
  }
}

.svg-elem-21 {
  -webkit-animation: animate-svg-fill-21 0.2s linear 2.1s both;
          animation: animate-svg-fill-21 0.2s linear 2.1s both;
}

@-webkit-keyframes animate-svg-fill-22 {
  0% {
    fill: transparent;
  }

  100% {
    fill: rgb(0, 0, 0);
  }
}

@keyframes animate-svg-fill-22 {
  0% {
    fill: transparent;
  }

  100% {
    fill: rgb(0, 0, 0);
  }
}

.svg-elem-22 {
  -webkit-animation: animate-svg-fill-22 0.2s linear 2.2s both;
          animation: animate-svg-fill-22 0.2s linear 2.2s both;
}

@-webkit-keyframes animate-svg-fill-23 {
  0% {
    fill: transparent;
  }

  100% {
    fill: rgb(0, 0, 0);
  }
}

@keyframes animate-svg-fill-23 {
  0% {
    fill: transparent;
  }

  100% {
    fill: rgb(0, 0, 0);
  }
}

.svg-elem-23 {
  -webkit-animation: animate-svg-fill-23 0.2s linear 2.3000000000000003s both;
          animation: animate-svg-fill-23 0.2s linear 2.3000000000000003s both;
}

@-webkit-keyframes animate-svg-fill-24 {
  0% {
    fill: transparent;
  }

  100% {
    fill: rgb(0, 0, 0);
  }
}

@keyframes animate-svg-fill-24 {
  0% {
    fill: transparent;
  }

  100% {
    fill: rgb(0, 0, 0);
  }
}

.svg-elem-24 {
  -webkit-animation: animate-svg-fill-24 0.2s linear 2.4000000000000004s both;
          animation: animate-svg-fill-24 0.2s linear 2.4000000000000004s both;
}

@-webkit-keyframes animate-svg-fill-25 {
  0% {
    fill: transparent;
  }

  100% {
    fill: rgb(0, 0, 0);
  }
}

@keyframes animate-svg-fill-25 {
  0% {
    fill: transparent;
  }

  100% {
    fill: rgb(0, 0, 0);
  }
}

.svg-elem-25 {
  -webkit-animation: animate-svg-fill-25 0.2s linear 2.5000000000000004s both;
          animation: animate-svg-fill-25 0.2s linear 2.5000000000000004s both;
}

@-webkit-keyframes animate-svg-fill-26 {
  0% {
    fill: transparent;
  }

  100% {
    fill: rgb(0, 0, 0);
  }
}

@keyframes animate-svg-fill-26 {
  0% {
    fill: transparent;
  }

  100% {
    fill: rgb(0, 0, 0);
  }
}

.svg-elem-26 {
  -webkit-animation: animate-svg-fill-26 0.2s linear 2.6s both;
          animation: animate-svg-fill-26 0.2s linear 2.6s both;
}

@-webkit-keyframes animate-svg-fill-27 {
  0% {
    fill: transparent;
  }

  100% {
    fill: rgb(0, 0, 0);
  }
}

@keyframes animate-svg-fill-27 {
  0% {
    fill: transparent;
  }

  100% {
    fill: rgb(0, 0, 0);
  }
}

.svg-elem-27 {
  -webkit-animation: animate-svg-fill-27 0.2s linear 2.7s both;
          animation: animate-svg-fill-27 0.2s linear 2.7s both;
}

@-webkit-keyframes animate-svg-fill-28 {
  0% {
    fill: transparent;
  }

  100% {
    fill: rgb(0, 0, 0);
  }
}

@keyframes animate-svg-fill-28 {
  0% {
    fill: transparent;
  }

  100% {
    fill: rgb(0, 0, 0);
  }
}

.svg-elem-28 {
  -webkit-animation: animate-svg-fill-28 0.2s linear 2.8000000000000003s both;
          animation: animate-svg-fill-28 0.2s linear 2.8000000000000003s both;
}

@-webkit-keyframes animate-svg-fill-29 {
  0% {
    fill: transparent;
  }

  100% {
    fill: rgb(0, 0, 0);
  }
}

@keyframes animate-svg-fill-29 {
  0% {
    fill: transparent;
  }

  100% {
    fill: rgb(0, 0, 0);
  }
}

.svg-elem-29 {
  -webkit-animation: animate-svg-fill-29 0.2s linear 2.9000000000000004s both;
          animation: animate-svg-fill-29 0.2s linear 2.9000000000000004s both;
}

@-webkit-keyframes animate-svg-fill-30 {
  0% {
    fill: transparent;
  }

  100% {
    fill: rgb(0, 0, 0);
  }
}

@keyframes animate-svg-fill-30 {
  0% {
    fill: transparent;
  }

  100% {
    fill: rgb(0, 0, 0);
  }
}

.svg-elem-30 {
  -webkit-animation: animate-svg-fill-30 0.2s linear 3.0000000000000004s both;
          animation: animate-svg-fill-30 0.2s linear 3.0000000000000004s both;
}

@-webkit-keyframes animate-svg-fill-31 {
  0% {
    fill: transparent;
  }

  100% {
    fill: rgb(0, 0, 0);
  }
}

@keyframes animate-svg-fill-31 {
  0% {
    fill: transparent;
  }

  100% {
    fill: rgb(0, 0, 0);
  }
}

.svg-elem-31 {
  -webkit-animation: animate-svg-fill-31 0.2s linear 3.1s both;
          animation: animate-svg-fill-31 0.2s linear 3.1s both;
}

@-webkit-keyframes animate-svg-fill-32 {
  0% {
    fill: transparent;
  }

  100% {
    fill: rgb(0, 0, 0);
  }
}

@keyframes animate-svg-fill-32 {
  0% {
    fill: transparent;
  }

  100% {
    fill: rgb(0, 0, 0);
  }
}

.svg-elem-32 {
  -webkit-animation: animate-svg-fill-32 0.2s linear 3.2s both;
          animation: animate-svg-fill-32 0.2s linear 3.2s both;
}

@-webkit-keyframes animate-svg-fill-33 {
  0% {
    fill: transparent;
  }

  100% {
    fill: rgb(0, 0, 0);
  }
}

@keyframes animate-svg-fill-33 {
  0% {
    fill: transparent;
  }

  100% {
    fill: rgb(0, 0, 0);
  }
}

.svg-elem-33 {
  -webkit-animation: animate-svg-fill-33 0.2s linear 3.3000000000000003s both;
          animation: animate-svg-fill-33 0.2s linear 3.3000000000000003s both;
}

@-webkit-keyframes animate-svg-fill-34 {
  0% {
    fill: transparent;
  }

  100% {
    fill: rgb(0, 0, 0);
  }
}

@keyframes animate-svg-fill-34 {
  0% {
    fill: transparent;
  }

  100% {
    fill: rgb(0, 0, 0);
  }
}

.svg-elem-34 {
  -webkit-animation: animate-svg-fill-34 0.2s linear 3.4000000000000004s both;
          animation: animate-svg-fill-34 0.2s linear 3.4000000000000004s both;
}

@-webkit-keyframes animate-svg-fill-35 {
  0% {
    fill: transparent;
  }

  100% {
    fill: rgb(0, 0, 0);
  }
}

@keyframes animate-svg-fill-35 {
  0% {
    fill: transparent;
  }

  100% {
    fill: rgb(0, 0, 0);
  }
}

.svg-elem-35 {
  -webkit-animation: animate-svg-fill-35 0.2s linear 3.5000000000000004s both;
          animation: animate-svg-fill-35 0.2s linear 3.5000000000000004s both;
}

@-webkit-keyframes animate-svg-fill-36 {
  0% {
    fill: transparent;
  }

  100% {
    fill: rgb(0, 0, 0);
  }
}

@keyframes animate-svg-fill-36 {
  0% {
    fill: transparent;
  }

  100% {
    fill: rgb(0, 0, 0);
  }
}

.svg-elem-36 {
  -webkit-animation: animate-svg-fill-36 0.2s linear 3.6s both;
          animation: animate-svg-fill-36 0.2s linear 3.6s both;
}

@-webkit-keyframes animate-svg-fill-37 {
  0% {
    fill: transparent;
  }

  100% {
    fill: rgb(0, 0, 0);
  }
}

@keyframes animate-svg-fill-37 {
  0% {
    fill: transparent;
  }

  100% {
    fill: rgb(0, 0, 0);
  }
}

.svg-elem-37 {
  -webkit-animation: animate-svg-fill-37 0.2s linear 3.7s both;
          animation: animate-svg-fill-37 0.2s linear 3.7s both;
}

@-webkit-keyframes animate-svg-fill-38 {
  0% {
    fill: transparent;
  }

  100% {
    fill: rgb(0, 0, 0);
  }
}

@keyframes animate-svg-fill-38 {
  0% {
    fill: transparent;
  }

  100% {
    fill: rgb(0, 0, 0);
  }
}

.svg-elem-38 {
  -webkit-animation: animate-svg-fill-38 0.2s linear 3.8000000000000003s both;
          animation: animate-svg-fill-38 0.2s linear 3.8000000000000003s both;
}

</style>
<g transform="translate(0.000000,5621.000000) scale(0.100000,-0.100000)" fill="#000000" stroke="none">
<path d="M52600 52310 c-812 -40 -1750 -203 -2548 -441 -1482 -442 -3998
-1634 -4832 -2290 -374 -293 -502 -556 -339 -694 91 -77 233 -114 471 -122
540 -19 1082 119 1583 402 239 135 435 272 730 510 264 213 468 344 790 507
221 112 336 164 570 258 618 248 1337 442 1960 529 276 39 379 46 670 46 255
0 304 -3 410 -22 781 -143 1474 -721 2090 -1744 299 -496 652 -1320 956 -2229
350 -1052 512 -1878 459 -2350 -82 -744 -482 -1699 -1113 -2663 -200 -305
-398 -568 -607 -807 -409 -467 -760 -1227 -881 -1905 -27 -151 -37 -415 -19
-521 39 -243 183 -469 352 -553 102 -52 183 -39 230 36 21 35 23 49 23 163 0
104 -5 144 -28 239 -47 187 -43 339 14 561 176 683 878 1637 1724 2340 850
707 1202 1312 1300 2238 39 364 45 1443 11 1877 -81 1021 -250 1986 -522 2980
-103 378 -189 646 -346 1080 -559 1546 -1091 2274 -1813 2479 -281 80 -817
120 -1295 96z" class="svg-elem-1"></path>
<path d="M15010 52224 c-490 -28 -798 -74 -1056 -159 -488 -160 -931 -429
-1255 -761 -474 -487 -762 -1122 -914 -2014 -14 -85 -69 -391 -121 -680 -189
-1045 -258 -1508 -279 -1890 -4 -63 -9 -126 -11 -140 -6 -38 -5 -585 2 -670
29 -384 88 -696 194 -1025 102 -315 138 -501 200 -1013 45 -377 59 -470 96
-655 96 -481 277 -853 594 -1221 119 -138 262 -274 475 -452 649 -543 1211
-1219 1526 -1837 154 -303 229 -563 229 -796 0 -192 -39 -310 -225 -686 -68
-137 -131 -275 -140 -305 -70 -235 -159 -382 -370 -610 -147 -158 -215 -270
-361 -588 -115 -250 -125 -276 -125 -339 -1 -64 16 -89 54 -80 41 11 75 45
134 135 74 113 268 306 438 437 243 187 276 235 374 535 28 85 63 176 79 202
15 25 79 102 143 170 154 162 230 254 302 363 106 161 177 330 223 530 28 118
26 413 -4 589 -91 534 -344 1171 -645 1627 -74 113 -144 202 -346 441 -350
413 -753 1041 -1049 1633 -322 645 -504 1198 -563 1710 -25 215 -17 794 17
1185 99 1155 339 2356 610 3053 136 349 329 633 643 947 611 610 1472 1038
2301 1145 166 21 617 14 847 -14 1274 -152 2712 -684 3431 -1270 394 -320 646
-490 947 -640 321 -160 652 -259 1005 -303 164 -20 545 -17 650 5 248 53 352
174 294 344 -57 169 -295 402 -654 641 -934 621 -2914 1553 -4240 1995 -680
227 -1497 377 -2400 442 -200 15 -903 27 -1050 19z" class="svg-elem-2"></path>
<path d="M30383 50300 c-614 -41 -1249 -199 -2068 -515 -305 -117 -418 -166
-625 -271 -622 -313 -1285 -803 -2040 -1505 -212 -197 -811 -782 -1060 -1036
-814 -829 -1277 -1238 -1693 -1497 -168 -105 -209 -137 -247 -195 -99 -148 76
-200 359 -105 210 70 353 153 779 457 727 518 1137 771 1702 1051 884 438
1711 669 2711 756 256 22 305 29 449 65 213 54 331 102 740 300 323 157 451
212 600 259 266 84 525 112 800 86 308 -29 412 -119 324 -280 -16 -29 -86
-113 -156 -186 -143 -151 -198 -240 -198 -321 0 -95 51 -138 165 -137 67 0 78
3 240 81 441 210 842 342 1730 568 627 160 825 220 964 290 133 67 171 121
171 246 -1 141 -87 311 -262 514 -105 122 -198 203 -444 388 -697 524 -1327
836 -1904 942 -235 43 -738 65 -1037 45z" class="svg-elem-3"></path>
<path d="M36330 50304 c-622 -78 -1409 -310 -1794 -530 -110 -63 -278 -189
-353 -266 -133 -135 -155 -286 -69 -457 79 -155 264 -387 403 -505 284 -241
673 -425 1088 -514 463 -100 802 -124 1610 -115 1015 12 1401 9 1565 -11 186
-22 317 -47 509 -97 805 -208 1674 -652 2228 -1139 117 -102 211 -215 398
-477 258 -361 383 -519 545 -686 124 -130 207 -170 278 -133 70 36 81 190 27
386 -103 375 -104 578 -3 640 85 52 244 2 486 -152 53 -34 183 -111 287 -171
235 -134 354 -208 565 -352 263 -178 359 -228 505 -260 272 -61 414 120 319
405 -56 170 -134 262 -678 805 -358 357 -417 415 -660 634 -1349 1219 -2767
2111 -4006 2522 -700 231 -1532 388 -2405 454 -195 15 -775 28 -845 19z" class="svg-elem-4"></path>
<path d="M47132 48299 c-84 -42 -177 -144 -306 -337 -390 -584 -591 -1210
-573 -1787 15 -482 144 -779 474 -1096 161 -153 365 -302 743 -541 74 -47 239
-151 365 -231 565 -357 915 -626 1240 -951 328 -329 574 -655 884 -1175 194
-325 296 -464 471 -642 388 -395 853 -595 1485 -640 274 -19 430 -4 605 60
330 121 630 423 832 839 173 358 269 754 298 1237 34 567 126 890 459 1623
133 293 190 431 246 602 155 474 164 828 24 954 -92 84 -233 48 -387 -98 -93
-88 -155 -171 -358 -476 -89 -135 -192 -282 -228 -327 -152 -191 -340 -298
-585 -333 -141 -21 -192 -11 -491 96 -92 33 -119 38 -215 42 -299 11 -498
-135 -609 -447 -15 -40 -58 -183 -96 -317 -76 -263 -105 -345 -174 -482 -52
-104 -148 -236 -199 -275 -224 -170 -566 -133 -1082 117 -280 136 -819 460
-1027 616 -540 407 -912 997 -1112 1761 -94 360 -137 666 -171 1234 -19 316
-38 477 -71 615 -75 316 -248 456 -442 359z" class="svg-elem-5"></path>
<path d="M21020 47857 c-85 -30 -101 -127 -50 -310 103 -368 109 -500 35 -862
-19 -93 -50 -262 -70 -374 -84 -484 -189 -758 -391 -1016 -284 -364 -711 -557
-1431 -645 -115 -14 -187 -29 -250 -51 -245 -85 -503 -270 -973 -694 -486
-438 -685 -577 -852 -593 -101 -9 -134 11 -269 162 -70 79 -202 183 -376 299
-89 59 -189 132 -222 163 -112 104 -196 256 -234 429 -9 39 -28 126 -42 195
-51 237 -153 515 -300 815 -211 430 -401 655 -569 672 -103 11 -197 -58 -264
-192 -63 -128 -112 -353 -166 -760 -54 -403 -81 -518 -132 -551 -36 -24 -67
-11 -116 48 -140 169 -223 231 -308 232 -95 2 -158 -75 -180 -221 -27 -173 40
-423 176 -657 68 -117 112 -170 222 -267 107 -94 148 -151 180 -256 43 -140
65 -305 87 -679 18 -287 40 -457 84 -631 87 -342 230 -611 436 -819 120 -120
212 -188 360 -260 123 -62 228 -96 360 -119 264 -46 680 -21 1000 60 464 117
847 367 1159 757 88 110 168 231 315 477 453 757 847 1200 1493 1682 185 138
447 313 818 546 602 378 775 505 975 715 313 327 419 656 419 1303 0 190 -3
261 -18 340 -50 277 -134 454 -343 732 -144 191 -267 286 -428 329 -60 17 -89
17 -135 1z" class="svg-elem-6"></path>
<path d="M34260 47248 c-158 -81 -154 -901 6 -1543 83 -331 249 -662 456 -910
463 -554 1231 -900 2243 -1010 291 -31 415 -37 965 -45 609 -8 644 -11 950
-74 766 -159 1675 -568 2400 -1079 248 -174 432 -327 696 -577 149 -140 238
-189 348 -190 302 -2 340 565 79 1189 -261 626 -1010 1275 -1956 1697 -285
127 -592 234 -900 314 -257 66 -369 88 -787 155 -1482 235 -2180 401 -2756
655 -437 194 -877 444 -1083 615 -103 86 -192 210 -341 474 -50 91 -109 191
-131 222 -65 96 -134 135 -189 107z" class="svg-elem-7"></path>
<path d="M33854 46911 c-127 -31 -230 -130 -479 -464 -93 -126 -195 -224 -385
-371 -406 -315 -999 -696 -1222 -786 -169 -67 -407 -109 -657 -114 -213 -5
-343 5 -736 55 -551 70 -571 72 -800 73 -248 1 -254 0 -775 -94 -582 -106
-747 -127 -940 -117 -196 10 -301 37 -555 141 -163 67 -284 89 -485 89 -175 0
-286 -14 -460 -58 -261 -66 -398 -125 -996 -426 -841 -423 -1087 -535 -1342
-609 -187 -54 -270 -120 -259 -205 8 -59 81 -124 184 -161 l78 -29 290 0 c225
1 317 5 410 18 417 62 728 174 1011 363 61 41 136 83 166 93 138 47 330 50
665 10 92 -11 222 -24 288 -28 137 -9 187 -27 211 -74 23 -44 11 -88 -43 -147
-37 -42 -68 -62 -162 -107 -64 -30 -141 -67 -171 -81 -108 -52 -384 -214 -558
-328 -671 -441 -1011 -803 -1012 -1077 0 -139 82 -206 235 -194 113 10 238 60
430 172 414 243 1232 467 2447 670 681 114 1521 222 2143 275 696 59 1038 108
1432 205 1034 255 1694 779 1988 1580 80 216 162 601 201 940 25 214 25 553 1
658 -28 120 -59 148 -143 128z" class="svg-elem-8"></path>
<path d="M43433 44220 c-59 -25 -72 -139 -28 -256 69 -183 179 -305 654 -718
434 -377 780 -718 981 -966 272 -336 466 -650 611 -987 81 -189 88 -213 278
-995 209 -859 444 -1384 760 -1699 96 -95 167 -141 366 -239 258 -126 535
-228 1415 -520 972 -322 1417 -492 1855 -706 356 -174 559 -305 875 -563 130
-107 235 -148 269 -107 35 42 4 170 -78 335 -225 446 -655 839 -1339 1223
-172 97 -586 303 -872 433 -129 59 -289 132 -355 162 -225 103 -530 262 -639
333 -190 124 -290 240 -404 465 -93 187 -142 356 -161 560 -6 61 -20 270 -31
465 -50 876 -106 1197 -260 1474 -154 276 -351 477 -589 600 -156 80 -314 128
-621 186 -216 41 -344 74 -459 117 -379 142 -783 405 -1443 940 -470 382 -594
464 -706 470 -31 1 -67 -1 -79 -7z" class="svg-elem-9"></path>
<path d="M33699 43153 c-74 -37 -305 -269 -491 -493 -80 -96 -219 -256 -308
-355 -202 -223 -674 -695 -795 -795 -206 -170 -264 -220 -374 -321 -265 -242
-440 -476 -511 -679 -171 -492 -359 -732 -666 -852 -141 -54 -227 -71 -364
-72 -143 0 -233 20 -348 78 -102 51 -171 109 -362 302 -202 204 -323 298 -488
382 -195 99 -321 133 -667 177 -1259 161 -2127 486 -2765 1034 -118 101 -249
192 -337 234 -52 24 -85 32 -140 35 -72 4 -73 4 -107 -30 -45 -45 -60 -102
-53 -203 12 -166 88 -388 232 -675 179 -359 363 -634 606 -905 189 -211 433
-422 684 -591 147 -99 218 -136 332 -170 78 -24 104 -27 238 -27 173 0 239 12
507 92 241 71 305 84 401 79 97 -5 145 -27 220 -96 126 -118 237 -351 317
-666 65 -256 79 -363 110 -841 37 -566 73 -753 193 -990 168 -335 379 -437
536 -259 81 92 116 186 161 429 16 89 46 208 65 265 119 340 354 647 644 842
189 126 319 179 561 228 229 46 436 123 726 268 409 205 755 440 1019 694 198
190 326 369 380 531 22 66 30 117 41 262 31 417 83 687 196 1015 65 186 110
292 262 607 193 403 387 903 453 1170 34 138 38 270 9 302 -25 28 -51 27 -117
-6z" class="svg-elem-10"></path>
<path d="M23488 43011 c-31 -10 -108 -50 -171 -89 -393 -242 -920 -419 -1642
-552 -93 -17 -208 -42 -255 -55 -339 -95 -586 -291 -678 -538 -28 -73 -84
-353 -116 -577 -33 -229 -58 -447 -106 -940 -41 -420 -50 -471 -101 -630 -55
-168 -171 -385 -262 -490 -362 -417 -778 -744 -1246 -980 -145 -72 -194 -108
-231 -167 -59 -93 -34 -192 61 -241 109 -55 215 -53 681 14 983 141 1505 349
1942 774 226 220 391 454 515 729 143 319 217 640 281 1226 41 370 64 473 147
660 118 266 322 523 676 852 537 498 561 524 643 688 80 161 80 281 0 319 -43
20 -67 20 -138 -3z" class="svg-elem-11"></path>
<path d="M34740 42692 c-69 -37 -127 -152 -157 -315 -14 -72 -18 -147 -17
-342 0 -215 4 -279 28 -460 93 -707 306 -1568 475 -1920 158 -329 556 -657
1170 -964 380 -190 759 -325 1073 -382 387 -69 708 -276 968 -623 157 -211
261 -463 306 -749 58 -363 225 -544 420 -453 128 59 268 266 353 521 59 178
81 339 111 800 35 535 40 556 154 669 82 82 165 127 343 187 227 76 279 115
703 534 395 390 451 443 589 555 234 188 411 287 886 490 641 276 936 449
1166 686 119 124 184 220 269 399 154 322 227 574 181 628 -49 60 -196 -45
-406 -288 -227 -263 -321 -350 -528 -487 -535 -355 -1268 -590 -2137 -685
-235 -25 -807 -25 -1000 1 -210 28 -302 30 -408 12 -126 -22 -236 -66 -343
-138 -115 -77 -221 -182 -387 -386 -147 -179 -226 -251 -342 -311 -121 -63
-213 -85 -360 -85 -104 0 -141 5 -223 27 -325 89 -511 246 -671 564 -48 96
-110 248 -141 343 -79 245 -338 545 -788 914 -193 158 -345 298 -470 434 -154
168 -233 276 -375 517 -23 39 -66 102 -97 140 -125 159 -248 218 -345 167z" class="svg-elem-12"></path>
<path d="M48957 42393 c-27 -26 25 -146 127 -293 200 -287 273 -406 375 -610
126 -253 184 -393 378 -910 79 -212 166 -430 193 -486 104 -213 256 -399 422
-512 42 -28 147 -89 235 -135 190 -100 270 -152 343 -227 104 -105 170 -226
268 -488 106 -282 159 -377 289 -522 202 -224 397 -361 910 -641 713 -389 763
-446 1052 -1197 56 -145 112 -284 125 -310 101 -197 278 -228 355 -63 22 48
26 69 25 151 0 58 -7 120 -18 160 -21 78 -177 460 -251 617 -153 323 -331 535
-654 779 -80 60 -139 114 -168 151 -66 88 -142 245 -262 540 -132 324 -198
466 -289 621 -195 328 -313 434 -917 829 -502 328 -707 487 -822 639 -227 299
-309 403 -468 593 -317 379 -956 1102 -1059 1199 -94 88 -170 134 -189 115z" class="svg-elem-13"></path>
<path d="M18754 41651 c-66 -16 -132 -58 -204 -131 -78 -78 -81 -83 -203 -340
-200 -420 -604 -1037 -904 -1380 -172 -197 -336 -323 -663 -510 -200 -114
-254 -152 -335 -234 -87 -88 -123 -160 -165 -326 -144 -576 -382 -1242 -586
-1638 -101 -197 -135 -328 -98 -381 14 -20 23 -23 61 -18 112 12 309 198 709
667 432 507 578 646 781 746 209 103 251 178 348 619 58 264 79 335 130 435
65 128 165 227 400 395 154 109 266 205 310 265 59 80 76 138 86 288 23 352
189 871 395 1234 65 115 84 166 84 222 -1 77 -54 109 -146 87z" class="svg-elem-14"></path>
<path d="M34013 39159 c-96 -47 -206 -183 -374 -459 -139 -230 -203 -324 -320
-470 -153 -192 -345 -392 -561 -585 -312 -279 -521 -433 -1433 -1059 -361
-247 -447 -319 -576 -481 -227 -283 -442 -726 -622 -1280 -74 -227 -82 -283
-81 -560 0 -269 11 -353 84 -692 128 -588 140 -658 140 -853 0 -186 -23 -286
-102 -445 -22 -44 -64 -115 -94 -157 -66 -95 -78 -139 -63 -244 61 -438 630
-1469 995 -1803 120 -110 220 -127 294 -50 131 137 150 678 44 1234 -38 194
-78 348 -150 570 -196 604 -321 1096 -386 1515 -18 117 -22 190 -22 375 -1
319 0 321 180 541 219 268 288 401 320 613 64 437 211 633 569 761 124 45 269
53 365 20 129 -43 179 -88 290 -255 176 -264 280 -350 385 -315 80 26 145 131
318 510 408 895 857 2285 967 2995 31 198 28 419 -6 504 -19 47 -66 91 -97 91
-12 0 -41 -9 -64 -21z" class="svg-elem-15"></path>
<path d="M45450 38719 c-159 -17 -335 -60 -865 -216 -433 -126 -563 -161 -724
-193 -519 -103 -1375 -180 -2202 -198 l-325 -8 -67 -32 c-303 -149 -211 -563
203 -916 167 -142 203 -185 221 -266 18 -79 -39 -169 -134 -213 -29 -14 -146
-53 -262 -87 -473 -140 -736 -251 -912 -384 -66 -50 -139 -133 -391 -444 -242
-298 -443 -484 -555 -512 -171 -44 -321 -109 -392 -172 -39 -34 -46 -46 -43
-72 4 -46 53 -60 188 -52 121 7 241 33 355 77 130 51 225 111 475 300 319 240
507 340 740 393 36 9 171 34 300 56 411 71 535 108 671 201 35 24 145 126 244
226 294 301 428 373 689 373 136 0 221 -14 536 -90 366 -88 337 -84 700 -85
351 -1 372 -3 630 -66 158 -38 464 -140 640 -214 524 -220 1113 -552 1526
-861 138 -103 162 -117 249 -144 320 -98 853 61 960 287 59 123 15 228 -153
360 -128 101 -213 183 -336 323 -467 530 -1045 1443 -1274 2010 -27 69 -60
161 -72 205 -29 107 -89 229 -140 287 -56 64 -160 115 -260 128 -85 11 -114
11 -220 -1z" class="svg-elem-16"></path>
<path d="M23035 38569 c-367 -37 -641 -160 -945 -423 -399 -345 -889 -1196
-1172 -2036 -71 -210 -135 -453 -182 -690 -91 -454 -86 -697 17 -746 31 -15
38 -15 89 0 117 34 232 131 598 502 274 278 375 364 661 557 557 377 1112 612
1591 673 148 18 414 15 523 -6 80 -16 321 -7 399 14 100 28 185 66 341 153
164 91 232 120 315 134 182 30 428 -30 716 -174 82 -41 239 -114 349 -162 422
-183 645 -310 739 -417 54 -62 108 -161 166 -307 79 -200 114 -246 218 -285
172 -66 297 -160 627 -472 88 -83 170 -156 182 -163 53 -27 93 3 93 70 0 56
-34 155 -83 240 -93 163 -118 252 -167 604 -25 180 -35 226 -60 283 -28 63
-112 164 -190 230 -171 143 -370 226 -704 293 -82 16 -180 42 -218 58 -105 44
-254 149 -339 238 -92 96 -128 165 -130 245 -2 64 -8 50 134 315 196 366 273
572 253 678 -4 20 -21 51 -38 70 -48 55 -93 62 -408 69 -460 9 -909 52 -1400
132 -272 45 -432 79 -745 159 -137 35 -317 78 -400 94 -304 61 -641 90 -830
70z" class="svg-elem-17"></path>
<path d="M35485 38296 c-60 -22 -145 -120 -203 -234 -109 -213 -274 -719 -342
-1047 -110 -529 -118 -1102 -24 -1645 90 -526 315 -1163 523 -1488 63 -97 167
-198 213 -207 133 -25 191 154 183 565 -5 270 -20 425 -78 805 -28 185 -32
235 -32 420 0 192 2 216 23 285 33 104 71 166 146 238 126 121 212 123 334 9
119 -113 240 -331 492 -887 191 -420 297 -638 396 -810 245 -427 370 -857 438
-1505 19 -173 38 -455 71 -1005 56 -947 120 -1413 232 -1691 69 -175 184 -252
255 -172 81 89 110 364 133 1243 14 550 32 822 70 1080 20 132 39 219 85 389
87 316 130 580 130 797 0 314 -73 456 -292 562 -77 38 -122 68 -165 110 -146
141 -249 364 -289 627 -22 138 -14 403 16 535 60 268 71 333 77 451 9 199 -19
353 -92 504 -70 145 -169 248 -305 319 -36 19 -135 56 -220 82 -401 122 -596
240 -775 469 -79 101 -149 212 -315 500 -342 595 -508 765 -685 701z" class="svg-elem-18"></path>
<path d="M54330 37844 c-32 -82 22 -449 151 -1027 l60 -272 93 -95 c184 -190
343 -459 621 -1050 153 -325 233 -487 309 -625 157 -284 349 -698 549 -1185
239 -581 224 -556 660 -1159 368 -509 529 -760 676 -1051 249 -491 331 -832
303 -1258 -15 -231 -36 -387 -132 -972 -126 -769 -151 -1012 -149 -1420 1
-267 15 -423 54 -628 74 -385 192 -659 439 -1025 238 -353 341 -527 511 -866
312 -622 562 -1300 745 -2016 138 -538 183 -899 146 -1155 -34 -230 -71 -383
-276 -1145 -239 -886 -297 -1156 -320 -1479 -9 -122 -17 -168 -41 -240 -42
-126 -116 -264 -240 -450 -165 -248 -276 -386 -930 -1156 -332 -392 -530 -646
-692 -890 -109 -165 -144 -229 -262 -475 -164 -344 -292 -580 -628 -1160 -357
-616 -554 -985 -705 -1315 -255 -557 -407 -1059 -467 -1540 -16 -135 -31 -368
-22 -360 3 3 39 73 80 156 725 1465 1755 2974 2921 4278 190 212 201 224 506
543 202 211 555 551 795 765 178 159 306 292 427 443 605 755 1095 1918 1227
2910 34 254 46 518 33 713 -21 295 -61 485 -156 729 -153 392 -233 714 -361
1447 -75 432 -93 527 -136 710 -81 352 -186 623 -336 870 -94 155 -156 231
-393 486 -549 590 -732 910 -795 1393 -27 214 -15 564 30 870 9 56 35 210 60
342 91 494 115 749 109 1155 -11 778 -198 1446 -558 1995 -113 172 -226 306
-403 480 -297 290 -523 579 -898 1149 -692 1053 -1717 2891 -2286 4101 -165
350 -255 505 -295 505 -8 0 -19 -12 -24 -26z" class="svg-elem-19"></path>
<path d="M14845 36911 c-164 -74 -601 -536 -1231 -1301 -218 -265 -716 -888
-1219 -1525 -893 -1131 -1217 -1530 -1561 -1920 -204 -232 -368 -393 -629
-621 -499 -433 -662 -619 -800 -906 -58 -121 -96 -238 -123 -383 -13 -71 -17
-146 -17 -360 1 -321 8 -381 101 -844 131 -656 168 -919 168 -1211 0 -518
-143 -828 -634 -1375 -182 -203 -274 -333 -332 -468 -98 -227 -115 -408 -82
-876 41 -575 -32 -909 -300 -1364 -360 -612 -471 -1626 -315 -2867 147 -1168
544 -2386 987 -3030 130 -189 204 -269 428 -466 915 -800 1812 -1784 2631
-2884 487 -654 962 -1388 1331 -2056 128 -233 322 -602 322 -614 0 -5 5 -12
11 -15 12 -8 7 71 -17 300 -46 430 -193 928 -424 1440 -55 122 -221 454 -277
555 -11 19 -46 82 -78 140 -85 154 -246 428 -431 737 -311 518 -491 840 -615
1098 -213 443 -388 680 -1110 1505 -200 229 -407 467 -460 530 -346 413 -550
732 -598 935 -10 44 -24 142 -30 218 -25 302 -99 613 -378 1592 -189 665 -247
936 -246 1150 2 467 261 1454 598 2280 230 562 491 1053 781 1465 268 381 394
696 466 1160 20 128 22 183 22 480 1 417 -22 642 -120 1197 -127 726 -157 925
-174 1175 -25 362 48 699 242 1108 151 319 345 621 787 1230 239 328 305 428
392 591 93 176 135 235 435 610 388 484 507 648 668 921 138 234 286 404 890
1017 547 556 640 665 758 886 210 393 320 708 268 770 -16 20 -36 19 -85 -4z" class="svg-elem-20"></path>
<path d="M17851 36308 c-50 -155 -53 -1016 -6 -1768 51 -797 121 -1267 291
-1952 336 -1352 831 -2658 1190 -3133 96 -128 280 -282 446 -373 40 -22 154
-74 253 -117 334 -143 486 -249 688 -484 255 -294 593 -618 1017 -977 683
-576 1362 -1045 1915 -1324 284 -143 500 -226 696 -268 247 -53 570 -72 680
-39 106 31 136 95 89 187 -45 89 -205 234 -408 369 -242 162 -597 526 -1038
1066 -372 457 -655 844 -728 1000 -175 368 -161 876 40 1470 32 96 37 122 37
205 1 106 -17 163 -75 249 -125 181 -322 312 -917 608 -206 103 -413 212 -460
243 -528 347 -1384 1188 -2040 2005 -821 1021 -1362 2004 -1572 2851 -22 92
-46 178 -52 191 -15 32 -34 29 -46 -9z" class="svg-elem-21"></path>
<path d="M16252 35845 c-94 -44 -210 -168 -388 -415 -320 -443 -813 -1215
-1809 -2835 -614 -998 -809 -1310 -935 -1490 -285 -408 -321 -540 -277 -1015
62 -653 -3 -1279 -193 -1850 -57 -174 -115 -310 -219 -519 -297 -592 -582
-1388 -770 -2149 -132 -531 -228 -1094 -278 -1622 -25 -269 -25 -946 0 -1150
36 -297 70 -452 147 -675 449 -1299 625 -2130 685 -3231 16 -299 32 -457 65
-649 66 -386 165 -702 321 -1023 198 -411 400 -686 757 -1032 432 -419 695
-741 1274 -1558 59 -84 108 -156 108 -160 0 -4 -44 -29 -97 -56 -145 -71 -261
-145 -320 -201 -40 -39 -55 -62 -68 -108 -55 -190 116 -360 307 -307 21 6 84
45 140 87 209 155 301 214 313 201 7 -7 94 -125 195 -263 626 -855 1115 -1397
1670 -1849 110 -89 170 -120 263 -136 162 -29 338 52 401 183 44 92 40 190
-14 304 -41 88 -97 157 -254 312 -389 382 -786 961 -1207 1762 -66 124 -119
228 -119 232 0 4 138 76 308 160 333 165 401 198 1047 502 1204 566 1540 737
2089 1064 396 237 570 332 901 496 916 454 1663 672 2917 850 309 44 296 44
302 3 10 -64 66 -626 81 -803 42 -518 48 -566 101 -824 62 -307 153 -593 281
-884 36 -81 64 -149 62 -150 -2 -1 -62 -31 -133 -67 -525 -263 -1115 -610
-1656 -972 -154 -103 -237 -153 -241 -145 -15 28 -43 260 -54 444 -12 210 -83
316 -210 316 -128 0 -241 -116 -325 -335 -73 -191 -190 -336 -302 -375 -75
-25 -185 -23 -273 6 -137 46 -212 90 -528 313 -415 292 -720 482 -1032 644
-327 169 -504 234 -690 254 -261 27 -394 -66 -321 -226 35 -75 143 -182 267
-261 51 -34 133 -86 180 -117 242 -157 444 -394 589 -691 113 -232 177 -431
310 -968 97 -387 124 -464 201 -550 23 -27 65 -60 93 -74 28 -14 52 -27 54
-28 2 -2 -36 -41 -85 -86 -48 -46 -166 -160 -262 -254 -194 -190 -215 -221
-214 -320 0 -182 197 -300 361 -216 84 43 244 243 511 641 90 135 165 246 166
248 4 5 233 30 340 37 131 8 338 -8 452 -35 268 -63 462 -226 588 -495 84
-177 129 -355 201 -785 56 -334 67 -390 114 -580 87 -349 177 -529 343 -686
126 -120 209 -162 602 -301 471 -166 1006 -320 1360 -392 266 -54 366 -65 570
-66 208 0 264 9 291 50 46 71 -89 157 -404 259 -78 25 -179 64 -225 87 -206
104 -435 294 -604 501 -102 124 -182 255 -279 456 -94 194 -164 313 -257 432
-181 233 -379 404 -642 554 -190 108 -310 231 -400 409 -58 114 -72 166 -144
507 -33 157 -90 422 -126 590 -80 370 -156 742 -153 745 27 25 549 268 1058
495 474 211 798 362 1009 471 95 49 175 88 176 87 2 -2 43 -59 91 -128 427
-610 991 -1103 1704 -1490 597 -324 1313 -556 1975 -640 363 -46 804 -52 1105
-15 558 68 1045 258 1875 731 438 249 615 335 985 479 471 183 1090 368 1525
454 507 101 774 101 1224 1 481 -107 1127 -329 1711 -587 249 -110 367 -171
725 -373 619 -350 944 -501 1303 -604 437 -126 1104 -166 1677 -100 802 91
1634 409 2380 907 273 183 487 358 726 597 276 276 410 443 684 857 2 3 303
-132 515 -232 284 -133 809 -400 955 -486 518 -303 1334 -886 1548 -1107 l48
-49 -63 -23 c-114 -42 -391 -161 -493 -212 -360 -181 -672 -396 -1105 -763
-632 -534 -1066 -855 -1430 -1055 -208 -114 -260 -159 -260 -227 0 -60 77
-118 188 -142 84 -18 255 -14 347 8 100 25 134 39 267 112 198 109 389 191
908 386 533 201 580 222 750 333 130 86 220 155 465 359 116 96 230 191 255
212 87 71 266 186 325 208 103 39 134 38 290 -7 77 -22 177 -47 223 -57 l83
-17 207 -207 c114 -115 228 -222 253 -239 100 -67 253 -95 307 -55 45 32 64
80 59 144 -8 89 -37 142 -139 245 -60 61 -86 95 -77 98 8 2 39 10 69 16 236
52 439 205 535 405 46 94 51 113 111 385 93 430 256 773 474 998 123 127 253
212 447 291 564 232 760 468 522 630 -96 66 -251 104 -531 129 -136 12 -205
47 -318 161 -181 183 -237 348 -270 806 -10 140 -8 531 3 541 8 8 66 -15 328
-132 523 -232 802 -401 1194 -724 280 -231 633 -505 1163 -904 144 -109 262
-199 262 -201 0 -8 -189 -341 -272 -480 -115 -191 -332 -519 -439 -660 -161
-215 -236 -302 -414 -485 -207 -211 -234 -244 -275 -332 -92 -196 -36 -372
146 -455 152 -69 304 -48 452 63 147 111 359 301 568 509 321 320 564 602 932
1081 l132 171 49 6 c153 18 254 168 212 313 -8 30 0 43 143 245 84 118 231
324 327 459 215 304 495 678 624 836 192 234 274 323 556 604 284 283 372 384
506 575 409 584 631 1291 668 2135 43 969 225 1899 573 2920 144 423 164 491
196 631 153 686 101 1735 -140 2829 -197 897 -468 1690 -839 2460 -172 356
-244 547 -315 834 -119 483 -154 1048 -99 1611 17 173 8 393 -20 480 -35 108
-103 239 -190 365 -187 270 -256 388 -654 1130 -430 803 -645 1176 -880 1530
-187 280 -332 458 -437 535 -245 180 -485 138 -576 -100 -15 -40 -19 -75 -18
-175 1 -146 23 -228 105 -393 424 -844 1055 -2830 1263 -3972 73 -403 81 -490
80 -905 0 -449 -29 -911 -104 -1671 -116 -1182 -134 -1434 -127 -1809 6 -313
13 -384 107 -1170 97 -812 120 -1090 120 -1443 0 -352 -31 -549 -130 -842
-200 -585 -595 -1140 -1155 -1621 -146 -126 -189 -172 -247 -264 -93 -149
-123 -277 -115 -494 8 -230 50 -377 205 -717 157 -346 239 -674 271 -1089 13
-163 5 -664 -13 -865 -24 -254 -64 -564 -92 -702 -55 -275 -218 -725 -415
-1142 -46 -97 -50 -103 -67 -89 -24 22 -468 317 -637 423 -330 209 -759 459
-1126 658 -181 97 -782 402 -922 466 -34 16 -102 48 -152 71 -49 23 -130 60
-180 82 -49 22 -94 44 -99 48 -14 13 32 204 92 380 48 143 56 175 56 243 1 74
-1 80 -27 103 -37 32 -71 30 -143 -6 -142 -71 -297 -242 -449 -495 -10 -16
-28 -10 -190 58 -1198 501 -2728 958 -4019 1201 -104 19 -190 37 -191 38 -2 2
-13 73 -24 158 -115 835 -226 1344 -349 1585 -141 279 -292 240 -365 -93 -19
-84 -21 -130 -22 -337 0 -170 5 -278 18 -370 41 -317 72 -835 48 -835 -6 0
-55 7 -109 15 -284 42 -944 105 -1287 122 -202 10 -1088 10 -1300 1 -371 -18
-998 -96 -1215 -152 -268 -70 -241 -455 34 -483 73 -8 183 23 696 192 726 240
792 252 1348 242 535 -9 810 -51 1777 -271 49 -11 50 -12 53 -50 5 -60 -26
-341 -58 -532 -76 -445 -223 -871 -430 -1240 -112 -200 -329 -512 -356 -514
-6 0 -94 32 -195 71 -233 90 -716 251 -969 324 -651 186 -1308 308 -2000 372
-247 22 -1157 26 -1390 5 -284 -25 -426 -43 -469 -59 -118 -43 -185 -175 -151
-298 16 -59 86 -137 142 -160 82 -34 168 -21 848 118 329 68 507 97 585 97 83
0 242 -39 423 -104 229 -82 264 -90 527 -121 559 -66 1126 -183 1735 -359 274
-79 630 -195 630 -205 0 -4 -15 -20 -32 -36 -18 -16 -67 -61 -108 -100 -454
-430 -1188 -898 -1778 -1134 -857 -342 -1981 -540 -2738 -481 -330 26 -563 79
-856 195 -551 220 -1083 556 -1673 1059 -244 208 -748 660 -805 723 -161 173
-261 411 -310 730 -45 298 -52 808 -15 1073 79 571 314 1021 770 1475 378 378
777 605 1255 715 588 134 1196 356 1585 578 340 194 677 510 869 815 29 47 73
109 98 139 72 85 125 169 177 280 78 165 127 340 158 563 23 168 23 566 -1
770 -56 482 -181 980 -361 1440 -115 294 -198 439 -435 755 -68 91 -152 208
-187 261 -77 117 -170 310 -213 438 -40 121 -86 353 -100 506 -27 286 -42 401
-64 489 -40 155 -93 236 -155 236 -103 0 -245 -232 -287 -470 -20 -114 -20
-331 1 -449 60 -346 273 -723 625 -1105 99 -108 149 -186 204 -317 213 -514
170 -1500 -91 -2114 -43 -101 -114 -216 -155 -250 -41 -35 -299 -160 -448
-218 -450 -175 -974 -296 -1420 -327 -338 -24 -419 -39 -600 -116 -58 -24
-170 -80 -250 -124 -356 -197 -479 -248 -710 -294 -176 -35 -333 -48 -575 -48
-232 0 -355 11 -550 48 -217 42 -364 95 -626 223 -256 124 -459 200 -964 360
-225 72 -364 105 -660 161 -689 128 -974 240 -1209 474 -131 132 -178 216
-261 470 -170 520 -209 1173 -93 1576 27 95 76 211 121 292 40 71 80 121 215
270 308 338 510 708 568 1038 22 127 22 336 -1 458 -14 75 -25 105 -57 153
-66 98 -195 184 -320 214 -84 20 -114 19 -191 -5 -120 -37 -208 -142 -266
-316 -40 -118 -57 -233 -81 -549 -35 -452 -84 -816 -150 -1112 -71 -316 -160
-583 -376 -1119 -225 -562 -340 -915 -391 -1209 -25 -143 -25 -486 0 -608 26
-131 78 -272 150 -415 36 -70 95 -188 130 -262 112 -233 239 -403 456 -612
215 -207 388 -329 661 -467 374 -190 863 -364 1336 -476 109 -26 250 -63 313
-82 507 -154 1031 -557 1398 -1073 257 -362 389 -736 433 -1225 22 -243 4
-702 -35 -915 -48 -257 -207 -575 -422 -844 -213 -267 -665 -637 -1233 -1011
-576 -380 -1064 -637 -1450 -765 -784 -261 -1689 -169 -2585 264 -224 108
-382 201 -688 404 -138 92 -360 237 -492 322 -559 359 -878 594 -1120 824 -78
73 -79 76 -60 92 11 8 101 55 200 104 642 315 1182 444 1719 411 260 -16 451
-45 1031 -156 287 -54 515 -87 563 -81 58 8 111 37 154 84 89 98 81 250 -17
341 -56 52 -107 66 -316 85 -1053 100 -2175 -46 -3372 -437 l-229 -75 -50 76
c-48 74 -449 874 -577 1151 -149 321 -262 619 -335 883 -28 97 -29 95 77 102
50 4 117 9 147 11 30 2 107 7 170 10 63 3 144 8 180 10 238 17 689 29 1065 29
567 1 657 -11 1293 -169 559 -138 589 -143 680 -96 112 57 163 211 106 323
-21 42 -71 95 -106 114 -86 45 -607 117 -1128 156 -188 14 -1182 18 -1460 5
-246 -11 -542 -33 -843 -63 -142 -15 -260 -24 -263 -21 -3 3 -13 63 -22 133
-24 190 -23 688 2 929 24 233 25 546 2 660 -42 208 -125 249 -251 122 -203
-205 -465 -804 -555 -1269 -15 -77 -27 -115 -34 -111 -80 46 -248 156 -355
232 -444 317 -796 692 -965 1028 -104 208 -139 379 -139 683 0 189 14 364 32
382 15 16 683 -38 966 -78 557 -79 998 -198 2205 -595 250 -83 625 -200 832
-260 619 -179 901 -275 1593 -544 638 -248 1206 -480 1345 -550 98 -49 146
-59 214 -45 155 32 240 201 172 345 -30 65 -70 99 -181 151 -305 142 -871 311
-2075 619 -660 169 -946 250 -1770 505 -1128 349 -1892 527 -2630 614 -189 23
-555 56 -612 56 -24 0 -23 6 29 165 104 319 270 595 487 810 57 57 177 158
276 231 97 72 243 187 325 255 614 511 865 675 1200 784 191 63 299 80 490 79
305 -1 528 -63 895 -251 187 -95 275 -125 391 -131 94 -5 124 5 169 53 22 23
25 36 25 94 0 55 -6 78 -33 133 -75 152 -198 274 -437 433 -430 286 -934 465
-1530 541 -105 14 -208 18 -415 19 -300 0 -318 -2 -845 -85 -633 -99 -794
-115 -1195 -115 -351 0 -470 10 -715 62 -397 83 -773 254 -1250 568 -817 538
-1491 1308 -2097 2395 -217 389 -438 855 -566 1195 -235 625 -383 1216 -562
2250 -152 880 -176 1004 -240 1250 -117 449 -263 734 -420 819 -45 24 -60 28
-114 24 -52 -3 -71 -10 -112 -39 -201 -144 -337 -529 -418 -1179 -149 -1192
-153 -2864 -10 -4020 74 -600 180 -1053 411 -1755 559 -1699 1424 -3400 2259
-4441 62 -77 135 -166 163 -196 28 -30 48 -58 44 -62 -3 -3 -18 -6 -32 -6 -34
0 -345 -52 -540 -90 -401 -79 -922 -215 -1241 -325 -279 -96 -637 -245 -696
-290 -49 -38 -84 -117 -84 -189 1 -78 24 -131 83 -183 93 -81 180 -82 357 -3
505 228 1204 460 1861 619 184 44 590 131 614 131 8 0 82 -58 163 -129 595
-523 1370 -1036 2387 -1580 404 -216 1492 -752 1984 -977 45 -20 80 -39 78
-41 -2 -1 -91 -21 -198 -42 -1061 -214 -2011 -525 -2824 -926 -233 -114 -754
-386 -1364 -709 -1157 -615 -1995 -1030 -2421 -1201 -140 -56 -620 -225 -640
-225 -10 0 -111 230 -193 440 -115 294 -191 547 -221 740 -76 486 -112 1075
-87 1435 32 456 110 777 274 1125 100 214 160 389 193 565 22 123 15 339 -15
443 -47 163 -145 305 -297 432 -545 457 -938 984 -1159 1555 -122 316 -165
560 -165 940 0 340 22 609 106 1320 117 984 129 1137 121 1494 -6 293 -24 526
-107 1401 -96 1018 -118 1319 -127 1755 -6 345 3 519 42 772 216 1384 1022
3872 1650 5088 126 246 188 352 318 545 184 275 260 451 287 664 9 76 -2 171
-26 217 -17 33 -61 59 -101 59 -15 0 -52 -11 -81 -25z m28768 -18328 c168 -36
402 -84 520 -107 699 -133 954 -188 1421 -305 688 -172 1132 -311 1674 -522
149 -58 272 -107 274 -109 1 -1 -20 -60 -47 -131 -88 -223 -144 -430 -182
-666 -28 -180 -39 -317 -50 -657 -27 -834 -49 -1039 -140 -1311 -107 -324
-282 -531 -547 -650 -54 -24 -528 -169 -608 -186 -14 -3 -58 28 -150 103 -815
670 -1842 1357 -2720 1819 -60 32 -151 80 -202 107 l-91 49 68 142 c168 350
288 696 375 1089 62 274 76 394 82 688 5 241 -8 614 -23 694 -6 26 -4 28 17
24 13 -3 161 -35 329 -71z" class="svg-elem-22"></path>
<path d="M49841 34968 c-85 -24 -163 -104 -259 -268 -346 -593 -1275 -1705
-2181 -2611 -434 -434 -696 -666 -925 -819 -49 -33 -227 -128 -395 -211 -572
-282 -770 -403 -913 -557 -153 -166 -181 -314 -103 -542 170 -496 206 -970 98
-1315 -31 -98 -97 -232 -162 -328 -142 -210 -535 -718 -780 -1007 -402 -474
-664 -735 -898 -891 -133 -89 -229 -167 -309 -251 -73 -75 -104 -132 -104
-188 0 -88 87 -124 300 -123 406 2 765 103 1240 350 606 314 1421 900 2130
1532 331 295 529 493 748 744 202 232 396 368 697 487 289 115 548 297 686
483 246 331 542 998 827 1867 325 991 543 1920 598 2555 20 231 15 571 -10
710 -51 283 -153 420 -285 383z" class="svg-elem-23"></path>
<path d="M25277 34770 c-341 -29 -679 -118 -944 -250 -171 -85 -315 -174 -598
-371 -766 -533 -821 -565 -1280 -744 -288 -113 -490 -228 -586 -333 -64 -70
-90 -122 -96 -192 -6 -64 14 -115 64 -162 41 -40 146 -85 243 -104 97 -20 329
-25 525 -10 132 10 197 1 297 -39 126 -51 218 -129 445 -378 406 -443 703
-676 1107 -867 219 -104 365 -155 811 -285 369 -108 568 -188 725 -290 93 -60
254 -220 299 -297 102 -176 154 -425 146 -713 -8 -306 -87 -532 -290 -834
-111 -164 -146 -233 -176 -346 -24 -93 -38 -315 -26 -415 11 -87 47 -164 86
-184 89 -47 187 20 284 195 101 180 343 476 573 699 66 64 236 215 379 335
573 484 907 815 1065 1055 199 304 374 797 440 1240 l11 76 -69 199 c-281 809
-406 1128 -583 1485 -169 341 -311 529 -539 716 -556 457 -1126 719 -1735 799
-147 19 -436 27 -578 15z m43 -692 c-114 -151 -192 -331 -231 -529 -19 -95
-16 -337 5 -442 87 -444 416 -816 841 -950 199 -62 474 -74 660 -28 438 108
775 417 904 829 47 151 55 206 56 364 0 81 3 144 6 140 3 -4 36 -42 73 -85
108 -126 207 -288 256 -419 36 -97 50 -180 50 -298 0 -376 -181 -677 -559
-931 -237 -160 -441 -236 -761 -286 -160 -25 -576 -25 -780 0 -924 113 -1561
510 -1789 1117 -51 135 -64 209 -64 345 3 349 195 696 523 943 171 129 459
242 780 307 106 21 105 23 30 -77z" class="svg-elem-24"></path>
<path d="M42504 34760 c-554 -44 -1138 -258 -1684 -617 -428 -282 -602 -456
-757 -758 -87 -170 -139 -309 -343 -925 -109 -327 -225 -665 -259 -750 l-61
-156 20 -124 c73 -449 260 -951 458 -1230 170 -238 540 -597 1092 -1059 390
-327 743 -716 897 -991 57 -102 114 -167 168 -191 152 -70 229 83 205 409 -12
167 -25 248 -65 417 -73 305 -291 866 -492 1271 -120 239 -131 267 -142 345
-31 218 58 395 226 445 89 27 386 82 693 129 444 68 585 96 815 167 365 111
752 315 1045 548 137 110 369 337 535 525 229 259 331 344 464 386 110 35 203
29 421 -25 274 -68 411 -89 550 -84 150 4 190 24 235 113 57 113 36 215 -63
314 -90 90 -186 151 -652 414 -342 192 -426 245 -930 577 -690 455 -948 600
-1267 710 -332 115 -751 168 -1109 140z m402 -610 c314 -63 589 -171 763 -300
291 -216 482 -528 522 -853 30 -245 -56 -516 -243 -769 -317 -428 -861 -694
-1608 -785 -200 -24 -618 -24 -780 0 -427 64 -759 229 -1031 514 -209 219
-297 448 -287 741 4 102 10 144 32 212 52 159 163 345 293 489 l58 63 0 -138
c0 -151 12 -231 56 -365 91 -282 289 -531 545 -686 284 -172 660 -220 983
-127 490 143 842 566 893 1076 32 315 -66 643 -264 887 -27 34 -45 61 -40 61
6 0 54 -9 108 -20z" class="svg-elem-25"></path>
<path d="M51056 33280 c-118 -104 -106 -514 30 -1035 187 -715 247 -1006 319
-1537 53 -397 69 -640 69 -1083 1 -601 -39 -975 -154 -1437 -72 -286 -139
-474 -287 -796 -108 -237 -174 -396 -333 -802 -269 -686 -395 -955 -585 -1245
-94 -143 -184 -253 -296 -364 -279 -275 -548 -377 -1103 -421 -72 -6 -306 -12
-520 -15 -793 -11 -1080 -35 -1416 -116 -292 -71 -515 -161 -950 -383 -618
-315 -726 -361 -985 -422 -85 -20 -148 -27 -277 -31 -201 -7 -305 5 -511 57
-266 67 -436 95 -1037 170 -632 79 -937 141 -1192 244 -126 51 -155 67 -340
188 -365 237 -604 330 -654 253 -15 -22 -15 -29 -1 -70 46 -133 241 -345 574
-622 200 -167 378 -282 633 -409 419 -208 779 -327 1770 -584 1029 -267 1296
-394 1744 -830 225 -220 366 -408 483 -645 57 -116 123 -293 123 -329 0 -10
-29 -15 -117 -20 -751 -43 -1476 -149 -2089 -307 -154 -40 -452 -127 -510
-150 -62 -24 -317 -99 -469 -137 -298 -76 -1178 -250 -1680 -332 -696 -114
-846 -142 -1100 -207 -282 -72 -614 -201 -693 -269 -142 -122 -99 -357 77
-420 85 -31 119 -22 351 90 808 391 1722 696 2870 960 982 225 2239 402 3274
462 l119 7 -6 -79 c-7 -84 -10 -95 -109 -424 -36 -118 -89 -294 -118 -390 -97
-324 -195 -558 -303 -723 -30 -45 -107 -140 -171 -212 -178 -197 -246 -320
-246 -443 0 -199 228 -245 636 -127 242 70 436 153 874 371 1002 500 1637 980
2463 1862 l78 83 247 -36 c909 -132 1627 -325 2322 -623 173 -74 263 -98 331
-89 54 7 89 40 89 83 0 75 -105 148 -400 279 -391 174 -592 228 -1400 374
-212 39 -439 82 -505 96 -164 36 -409 84 -467 91 -27 4 -48 8 -48 11 0 2 57
67 126 145 570 642 1014 1312 1527 2308 639 1242 1231 2868 1381 3801 96 590
118 1364 61 2130 -74 1004 -272 2008 -542 2754 -184 507 -479 1049 -683 1255
-120 121 -206 149 -274 90z" class="svg-elem-26"></path>
<path d="M29545 30867 c-57 -32 -124 -122 -185 -245 -107 -219 -198 -356 -730
-1097 -469 -655 -505 -705 -643 -915 -267 -408 -335 -567 -325 -770 3 -70 6
-83 30 -106 35 -36 98 -41 224 -19 132 22 185 21 241 -6 96 -46 139 -158 130
-336 -7 -144 -33 -227 -174 -563 -348 -826 -546 -1435 -633 -1945 -60 -353
-67 -788 -15 -972 9 -28 27 -65 41 -82 37 -44 68 -41 118 12 78 81 147 242
235 548 114 398 282 722 640 1239 192 277 388 531 952 1231 208 258 324 420
355 497 36 89 47 179 42 331 -4 113 -10 147 -31 204 -34 94 -68 141 -124 174
-97 57 -223 22 -378 -103 -116 -94 -186 -114 -252 -75 -141 86 -153 446 -32
993 123 560 344 1081 600 1415 98 128 142 248 142 388 0 96 -20 152 -69 195
-43 38 -100 40 -159 7z" class="svg-elem-27"></path>
<path d="M39051 30289 c-49 -20 -84 -54 -109 -107 -21 -46 -24 -65 -20 -126 6
-91 32 -148 131 -286 126 -174 184 -311 212 -500 36 -232 5 -449 -130 -925
-30 -105 -37 -249 -16 -335 32 -134 116 -264 308 -481 292 -329 409 -491 544
-753 186 -362 238 -551 248 -901 6 -208 9 -235 29 -279 65 -143 162 -187 243
-110 73 70 104 238 95 514 -12 388 -54 587 -193 919 -196 466 -218 539 -217
726 1 130 13 181 60 242 55 72 136 88 299 58 203 -37 265 -4 265 138 0 100
-27 223 -69 312 -84 178 -210 338 -720 910 -285 320 -399 472 -487 648 -29 59
-67 127 -83 151 -49 71 -144 152 -206 175 -58 22 -143 27 -184 10z" class="svg-elem-28"></path>
<path d="M38245 18733 c-224 -31 -417 -138 -666 -371 -54 -51 -96 -82 -117
-87 -144 -31 -159 -233 -27 -374 61 -65 130 -95 202 -88 62 6 201 70 388 177
259 148 371 187 635 220 322 40 527 96 731 198 113 57 314 181 306 189 -3 2
-40 -1 -84 -6 -135 -17 -265 -2 -622 70 -135 28 -289 57 -341 65 -87 13 -331
17 -405 7z" class="svg-elem-29"></path>
<path d="M28795 17355 c-105 -16 -172 -34 -395 -106 -490 -158 -789 -209
-1224 -209 -137 0 -207 -3 -200 -10 14 -14 219 -66 371 -95 207 -39 362 -55
568 -62 211 -6 310 2 578 47 445 75 991 109 1307 81 47 -4 86 -7 88 -5 4 3
-291 179 -388 232 -105 57 -240 108 -339 126 -98 19 -253 19 -366 1z" class="svg-elem-30"></path>
<path d="M39731 15129 c-523 -145 -869 -285 -1125 -453 -116 -77 -173 -100
-286 -117 -290 -42 -843 88 -1527 360 -67 26 -68 19 -2 -14 139 -71 415 -276
739 -549 201 -169 263 -207 380 -232 197 -42 509 27 780 173 171 91 292 177
790 559 186 143 275 205 404 281 50 29 83 53 75 52 -7 0 -110 -27 -228 -60z" class="svg-elem-31"></path>
<path d="M30935 15114 c-40 -14 -74 -37 -282 -188 -254 -184 -594 -356 -908
-462 -249 -83 -440 -109 -800 -108 -337 1 -575 33 -780 104 -44 16 -73 24 -65
19 67 -42 714 -421 808 -473 330 -183 586 -270 741 -251 132 15 446 140 649
256 471 271 739 581 792 914 14 86 4 143 -31 177 -31 32 -62 34 -124 12z" class="svg-elem-32"></path>
<path d="M34354 12541 c-86 -14 -149 -40 -183 -75 -85 -88 -27 -190 132 -232
68 -18 128 -18 223 2 104 22 355 14 498 -15 329 -67 715 -222 961 -385 117
-77 253 -215 435 -440 173 -214 279 -328 369 -397 90 -68 245 -143 366 -175
91 -25 116 -28 280 -28 155 0 191 2 261 21 114 32 204 67 319 126 96 50 311
185 304 191 -2 2 -38 0 -79 -4 -449 -44 -1240 280 -1698 694 -259 235 -590
400 -1057 526 -575 155 -737 188 -945 195 -74 2 -158 0 -186 -4z" class="svg-elem-33"></path>
<path d="M42390 12289 c-88 -58 -361 -149 -650 -218 -289 -68 -683 -131 -824
-131 -139 0 -265 -60 -677 -322 -488 -310 -609 -370 -916 -449 -149 -38 -224
-101 -195 -164 27 -60 210 -114 459 -137 159 -14 271 -3 408 43 122 41 222 96
454 253 220 148 301 187 441 210 348 59 915 309 1214 535 92 69 214 186 262
252 36 49 89 160 76 158 -4 0 -27 -14 -52 -30z" class="svg-elem-34"></path>
<path d="M31660 12140 c-167 -35 -421 -117 -845 -270 -456 -165 -573 -223
-1375 -685 -335 -193 -528 -288 -629 -312 -117 -27 -321 -23 -481 10 -320 67
-649 221 -882 414 -43 35 -78 58 -78 51 1 -21 37 -95 72 -145 55 -81 204 -228
418 -413 235 -203 351 -320 414 -417 90 -140 153 -175 321 -181 93 -3 125 1
207 22 293 75 587 252 1113 671 478 380 878 652 1150 781 233 110 403 151 685
164 196 8 238 17 283 58 21 21 27 35 27 69 0 52 -16 87 -62 130 -77 74 -172
89 -338 53z" class="svg-elem-35"></path>
<path d="M15060 11345 c-43 -52 101 -322 347 -651 131 -175 255 -316 448 -510
161 -161 264 -256 641 -590 289 -257 397 -384 458 -537 15 -37 49 -152 76
-256 59 -226 88 -301 153 -398 103 -155 282 -254 567 -314 136 -29 366 -29
592 -2 101 13 202 19 285 17 227 -5 294 -17 411 -70 111 -50 182 -127 262
-284 57 -113 73 -134 159 -221 213 -211 495 -361 1251 -662 391 -156 457 -177
544 -177 48 0 58 3 72 25 15 23 15 27 -6 71 -31 64 -112 147 -237 245 -320
251 -435 366 -979 979 -249 280 -490 517 -804 791 -528 458 -1137 917 -1430
1077 -95 52 -315 141 -685 277 -847 312 -1210 484 -1457 692 -42 36 -78 69
-80 73 -2 5 -64 66 -138 135 -248 233 -411 338 -450 290z" class="svg-elem-36"></path>
<path d="M52989 11346 c-82 -29 -292 -198 -454 -365 -290 -300 -586 -450
-1695 -862 -404 -150 -545 -211 -680 -293 -466 -285 -1337 -988 -1825 -1473
-77 -76 -259 -274 -404 -439 -343 -388 -615 -660 -836 -836 -185 -147 -268
-229 -297 -296 -18 -40 -18 -45 -4 -68 14 -21 24 -24 72 -24 31 0 84 7 117 16
72 18 720 275 933 369 333 148 584 298 727 434 94 90 119 124 187 260 71 139
137 209 244 260 45 22 104 44 132 51 132 30 405 32 604 4 170 -23 416 -23 535
0 226 44 418 130 518 231 109 109 151 199 226 486 65 248 100 332 184 444 60
80 237 251 492 475 368 324 528 479 729 705 261 294 548 729 571 865 6 36 4
46 -11 57 -21 15 -20 16 -65 -1z" class="svg-elem-37"></path>
<path d="M26114 11126 c-47 -21 -92 -83 -117 -161 -29 -91 -31 -282 -4 -395
59 -252 189 -552 394 -915 158 -278 263 -451 655 -1070 206 -327 299 -489 436
-761 66 -131 216 -405 333 -609 305 -533 437 -799 550 -1116 54 -151 86 -214
130 -254 136 -122 295 -22 444 280 72 145 108 195 159 219 74 35 142 11 225
-79 109 -120 178 -269 321 -692 129 -380 193 -520 338 -737 170 -254 388 -412
520 -376 89 23 119 71 138 219 17 129 52 209 126 287 63 67 183 149 241 165
124 33 261 -21 449 -179 64 -54 168 -134 230 -177 379 -264 488 -352 640 -518
286 -313 482 -487 733 -652 190 -125 260 -163 625 -347 173 -87 383 -194 466
-237 245 -128 407 -146 523 -60 76 56 116 159 137 352 23 220 81 348 270 601
265 353 534 594 1340 1199 188 141 393 298 455 349 192 157 259 198 329 198
88 0 111 -60 140 -356 30 -314 38 -424 45 -649 4 -110 11 -220 16 -243 36
-170 168 -234 321 -156 71 36 195 159 267 264 159 232 418 752 566 1135 32 83
78 202 102 265 50 128 132 290 192 379 74 109 171 173 235 157 38 -9 91 -61
126 -121 85 -149 225 -185 395 -101 136 67 224 178 290 366 54 154 184 411
258 510 35 47 108 134 163 194 215 235 295 348 414 586 120 239 201 377 578
974 534 847 762 1278 866 1638 70 242 50 481 -48 584 -37 38 -48 44 -84 44
-46 0 -92 -32 -119 -84 -9 -17 -33 -90 -54 -162 -90 -312 -256 -611 -498 -899
-111 -133 -336 -353 -601 -589 -309 -276 -456 -421 -600 -591 -314 -373 -841
-816 -1465 -1230 -274 -182 -423 -272 -605 -364 -647 -329 -1580 -594 -2651
-755 -234 -35 -599 -79 -759 -91 -47 -4 -98 -9 -115 -11 -16 -3 -181 -7 -366
-11 -299 -5 -557 3 -734 22 -22 3 -89 10 -150 15 -251 24 -569 68 -900 125
-858 147 -1624 368 -2205 635 -435 200 -1213 708 -1670 1091 -260 218 -410
377 -540 574 -165 249 -266 363 -800 895 -235 234 -467 474 -516 533 -232 283
-332 462 -389 692 -30 124 -61 180 -110 201 -41 17 -42 17 -81 0z" class="svg-elem-38"></path>
</g>
</svg>
